<?xml version="1.0" encoding="utf-8"?>
<!-- Generator: Adobe Illustrator 19.2.0, SVG Export Plug-In . SVG Version: 6.00 Build 0)  -->
<svg version="1.1" id="Layer_1" xmlns="http://www.w3.org/2000/svg" xmlns:xlink="http://www.w3.org/1999/xlink" x="0px" y="0px"
	 viewBox="0 0 50.3 68.9" style="enable-background:new 0 0 50.3 68.9;" xml:space="preserve">
<style type="text/css">
	.st0{fill:none;}
	.st1{fill:#FFFFFF;}
	.st2{fill:none;stroke:#000000;stroke-width:0.25;stroke-miterlimit:10;}
</style>
<g>
	<g>
		<polygon class="st0" points="18.1,18.1 1.2,18.1 1.2,67.7 49.1,67.7 49.1,1.2 18.1,1.2 		"/>
		<polygon class="st1" points="16.8,2.1 2.1,16.8 16.8,16.8 		"/>
		<path d="M17.2,0L0,17.2v51.7h50.3V0H17.2z M16.8,2.1v14.8H2.1L16.8,2.1z M49.1,67.7H1.2V18.1h16.8V1.2h31V67.7z"/>
	</g>
	<line class="st2" x1="6.7" y1="61.8" x2="43.5" y2="61.8"/>
	<line class="st2" x1="6.7" y1="56.2" x2="43.5" y2="56.2"/>
	<line class="st2" x1="6.7" y1="50.6" x2="43.5" y2="50.6"/>
	<line class="st2" x1="6.7" y1="45" x2="43.5" y2="45"/>
	<line class="st2" x1="6.7" y1="39.4" x2="43.5" y2="39.4"/>
	<line class="st2" x1="6.7" y1="33.8" x2="43.5" y2="33.8"/>
	<line class="st2" x1="16.9" y1="11.5" x2="43.5" y2="11.5"/>
	<line class="st2" x1="16.9" y1="17.1" x2="43.5" y2="17.1"/>
	<line class="st2" x1="6.7" y1="22.7" x2="43.5" y2="22.7"/>
	<line class="st2" x1="6.7" y1="28.3" x2="43.5" y2="28.3"/>
	<line class="st2" x1="16.9" y1="5.9" x2="43.5" y2="5.9"/>
</g>
</svg>
