<?xml version="1.0" encoding="utf-8"?>
<!-- Generator: Adobe Illustrator 19.2.0, SVG Export Plug-In . SVG Version: 6.00 Build 0)  -->
<svg version="1.1" id="Layer_1" xmlns="http://www.w3.org/2000/svg" xmlns:xlink="http://www.w3.org/1999/xlink" x="0px" y="0px"
	 viewBox="0 0 50.3 68.9" style="enable-background:new 0 0 50.3 68.9;" xml:space="preserve">
<style type="text/css">
	.st0{fill:none;}
	.st1{fill:#FFFFFF;}
</style>
<polygon class="st0" points="18.1,18.1 1.2,18.1 1.2,67.7 49.1,67.7 49.1,1.2 18.1,1.2 "/>
<polygon class="st1" points="16.8,2.1 2.1,16.8 16.8,16.8 "/>
<path d="M17.2,0L0,17.2v51.7h50.3V0H17.2z M16.8,2.1v14.8H2.1L16.8,2.1z M49.1,67.7H1.2V18.1H18V1.2h31L49.1,67.7L49.1,67.7z"/>
<rect x="6.7" y="61.3" width="36.8" height="1"/>
<rect x="6.7" y="55.7" width="36.8" height="1"/>
<rect x="6.7" y="50.1" width="36.8" height="1"/>
<rect x="6.7" y="44.5" width="36.8" height="1"/>
<rect x="6.7" y="38.9" width="36.8" height="1"/>
<rect x="6.7" y="33.3" width="36.8" height="1"/>
<rect x="16.9" y="11" width="26.6" height="1"/>
<rect x="16.9" y="16.6" width="26.6" height="1"/>
<rect x="6.7" y="22.2" width="36.8" height="1"/>
<rect x="6.7" y="27.8" width="36.8" height="1"/>
</svg>
