<svg id="Layer_1" data-name="Layer 1" xmlns="http://www.w3.org/2000/svg" viewBox="0 0 150.53 182.4"><defs><style>.cls-1{fill:none;stroke:#010101;stroke-miterlimit:10;}</style></defs><title>logo</title><path class="cls-1" d="M5.77,10.88a3,3,0,0,1,3-3H44.92c19.5,0,35.51,15.85,35.51,35A35.65,35.65,0,0,1,45.08,78.56h-23v37.25a3.12,3.12,0,0,1-3,3H8.78a3,3,0,0,1-3-3V10.88ZM44,63A20.19,20.19,0,0,0,64.1,42.74c0-10.78-9.19-19-20.13-19H22.1V63H44Z" transform="translate(-5.27 -7.36)"/><path class="cls-1" d="M115.8,75.13c16,0,27.58,5.39,38.36,14.74a3,3,0,0,1,.16,4.44l-7,7.13c-1.11,1.43-2.54,1.43-4,0A43,43,0,0,0,116,90.83c-22.67,0-39.79,19-39.79,41.21s17.28,41.05,39.94,41.05c11.57,0,19.66-4.6,27.26-10.46a2.9,2.9,0,0,1,3.8-.16l7.29,7.13c1.27,1.11,1,3.17-.16,4.28a54.4,54.4,0,0,1-38.52,15.38A57.06,57.06,0,1,1,115.8,75.13Z" transform="translate(-5.27 -7.36)"/></svg>