<?xml version="1.0" encoding="utf-8"?>
<!-- Generator: Adobe Illustrator 19.2.0, SVG Export Plug-In . SVG Version: 6.00 Build 0)  -->
<svg version="1.1" id="Layer_1" xmlns="http://www.w3.org/2000/svg" xmlns:xlink="http://www.w3.org/1999/xlink" x="0px" y="0px"
	 viewBox="0 0 200 200" style="enable-background:new 0 0 200 200;" xml:space="preserve">
<style type="text/css">
	.st0{font-family:'BrandonGrotesque-Regular';}
	.st1{font-size:59.6378px;}
</style>
<g>
	<path d="M6.4,13.6c0-0.7,0.5-1.3,1.3-1.3h14.9c8.3,0,15.1,6.7,15.1,14.9c0,8.3-6.8,15.2-15,15.2H11.5v15.8c0,0.7-0.6,1.3-1.3,1.3
		H7.7c-0.7,0-1.3-0.6-1.3-1.3V13.6z M22.2,37.4c5.5,0,10.2-4.5,10.2-10.3c0-5.5-4.7-9.6-10.2-9.6H11.5v19.9H22.2z"/>
	<path d="M51.5,42.4c2.9,0,5.7,0.9,5.7,0.9c0.1-5-0.5-7.3-4.4-7.3c-3.7,0-6.9,1-8.1,1.5c-0.7,0.3-1.1-0.1-1.3-0.7l-0.5-1.7
		c-0.3-0.8,0.1-1.2,0.7-1.5c0.4-0.2,4.3-1.8,9.4-1.8c6.9,0,8.6,3.5,8.6,11.4v15c0,0.7-0.6,1.3-1.3,1.3H59c-0.7,0-0.9-0.4-1.1-1
		l-0.5-1.8c-1.4,1.4-4.2,3.5-8.4,3.5c-4.7,0-8.3-3.4-8.3-8.8C40.7,46.2,44.6,42.4,51.5,42.4z M49.7,56.1c3.4,0,6.3-2.1,7.4-3.8V47
		c-0.8-0.5-2.7-1.1-5.7-1.1c-3.8,0-6.5,1.9-6.5,5.4C45,54,46.8,56.1,49.7,56.1z"/>
	<path d="M72.7,36.6h-3.4c-0.7,0-1.3-0.6-1.3-1.3v-1.5c0-0.7,0.5-1.3,1.3-1.3h3.4V25c0-0.7,0.6-1.3,1.3-1.3l2.2-0.1
		c0.7,0,1.2,0.6,1.2,1.3v7.6h7.8c0.7,0,1.3,0.5,1.3,1.3v1.5c0,0.7-0.5,1.3-1.3,1.3h-7.8v15.8c0,2.7,0.7,3.2,2.2,3.2
		c1.7,0,4-1,4.9-1.5c1-0.5,1.3-0.1,1.6,0.4l1,1.7c0.5,0.8,0.3,1.2-0.5,1.7c-0.9,0.6-4.6,2.3-7.7,2.3c-5.4,0-6.2-3.2-6.2-7.4V36.6z"
		/>
	<path d="M94,33.8c0-0.7,0.6-1.3,1.3-1.3h1.3c0.5,0,1,0.3,1.1,0.9l0.5,2c0,0,2.5-3.6,8.1-3.6c2,0,5.4,0.3,4.7,2.2l-0.8,2.3
		c-0.3,0.9-0.9,0.9-1.6,0.6c-0.6-0.3-1.6-0.5-2.6-0.5c-5.1,0-7.3,3.8-7.3,3.8v18c0,0.7-0.6,1.3-1.3,1.3h-2.1c-0.7,0-1.3-0.6-1.3-1.3
		V33.8z"/>
	<path d="M115.6,16.9c0-1.8,1.4-3.2,3.2-3.2c1.8,0,3.2,1.4,3.2,3.2c0,1.8-1.4,3.2-3.2,3.2C117,20.1,115.6,18.6,115.6,16.9z
		 M116.5,33.8c0-0.7,0.6-1.3,1.3-1.3h2.1c0.7,0,1.3,0.6,1.3,1.3v24.4c0,0.7-0.6,1.3-1.3,1.3h-2.1c-0.7,0-1.3-0.6-1.3-1.3V33.8z"/>
	<path d="M142.6,31.8c4,0,7.2,1.6,9.6,4.7c0.5,0.6,0.3,1.4-0.3,1.9l-1.3,1.1c-1,0.9-1.3,0.3-2-0.3c-1.3-1.5-3.6-2.8-6.2-2.8
		c-5.1,0-9,4.2-9,9.6c0,5.4,3.8,9.7,8.9,9.7c4,0,5.6-2,7.1-3.5c0.8-0.8,1.3-0.7,2-0.1l0.7,0.5c0.7,0.5,0.9,1.2,0.5,1.9
		c-2,3.2-5.7,5.7-10.3,5.7c-7.5,0-13.8-6-13.8-14.1C128.7,38.1,135.2,31.8,142.6,31.8z"/>
	<path d="M159.5,16.9c0-1.8,1.4-3.2,3.2-3.2c1.8,0,3.2,1.4,3.2,3.2c0,1.8-1.4,3.2-3.2,3.2C160.9,20.1,159.5,18.6,159.5,16.9z
		 M160.4,33.8c0-0.7,0.6-1.3,1.3-1.3h2.1c0.7,0,1.3,0.6,1.3,1.3v24.4c0,0.7-0.6,1.3-1.3,1.3h-2.1c-0.7,0-1.3-0.6-1.3-1.3V33.8z"/>
	<path d="M183.5,42.4c2.9,0,5.7,0.9,5.7,0.9c0.1-5-0.5-7.3-4.4-7.3c-3.7,0-6.9,1-8.1,1.5c-0.7,0.3-1.1-0.1-1.3-0.7l-0.5-1.7
		c-0.3-0.8,0.1-1.2,0.7-1.5c0.4-0.2,4.3-1.8,9.4-1.8c6.9,0,8.5,3.5,8.5,11.4v15c0,0.7-0.6,1.3-1.3,1.3H191c-0.7,0-0.9-0.4-1.1-1
		l-0.5-1.8c-1.4,1.4-4.2,3.5-8.4,3.5c-4.7,0-8.3-3.4-8.3-8.8C172.7,46.2,176.6,42.4,183.5,42.4z M181.7,56.1c3.4,0,6.3-2.1,7.4-3.8
		V47c-0.8-0.5-2.7-1.1-5.7-1.1c-3.8,0-6.5,1.9-6.5,5.4C177,54,178.8,56.1,181.7,56.1z"/>
</g>
<g>
	<path d="M25.7,79.7c6.8,0,11.7,2.4,16.3,6.3c0.5,0.5,0.6,1.3,0.1,1.9l-1.8,1.8c-0.5,0.7-1.1,0.6-1.8-0.1c-3.5-3-8.3-5.1-12.9-5.1
		c-10.6,0-18.8,9-18.8,19.4c0,10.4,8.1,19.3,18.8,19.3c5.9,0,9.3-2.4,12.9-5.1c0.7-0.5,1.2-0.5,1.6-0.2l2,1.8
		c0.5,0.4,0.4,1.3-0.1,1.8c-4.6,4.4-10.4,6.5-16.4,6.5c-13.5,0-24.3-10.7-24.3-24.2C1.4,90.5,12.3,79.7,25.7,79.7z"/>
	<path d="M58.8,110.4c2.9,0,5.7,0.9,5.7,0.9c0.1-5-0.5-7.3-4.4-7.3c-3.7,0-6.9,1-8.1,1.5c-0.7,0.3-1.1-0.1-1.3-0.7l-0.5-1.7
		c-0.3-0.8,0.1-1.2,0.7-1.5c0.4-0.2,4.3-1.8,9.4-1.8c6.9,0,8.6,3.5,8.6,11.4v15c0,0.7-0.6,1.3-1.3,1.3h-1.3c-0.7,0-0.9-0.4-1.1-1
		l-0.5-1.8c-1.4,1.4-4.2,3.5-8.4,3.5c-4.7,0-8.3-3.4-8.3-8.8C48,114.2,51.8,110.4,58.8,110.4z M57,124.1c3.4,0,6.3-2.1,7.4-3.8V115
		c-0.8-0.5-2.7-1.1-5.7-1.1c-3.8,0-6.5,1.9-6.5,5.4C52.3,122,54.1,124.1,57,124.1z"/>
	<path d="M76.6,123.7c0.3-0.4,0.7-1.3,0.9-1.7c0.3-0.5,1.1-0.7,1.8-0.2c0,0,2.9,2.4,6.3,2.4c2.8,0,4.4-1.4,4.4-3.2
		c0-2.4-2-3.4-5.9-5.4c-3.6-1.7-7.7-4.1-7.7-8.7c0-2.8,2.3-7,8.5-7c3.5,0,6.2,1.2,7.5,2.1c0.6,0.4,0.8,1.3,0.4,2.1l-0.5,1.1
		c-0.4,0.7-1.3,0.9-2,0.6c0,0-2.9-1.6-5.4-1.6c-3,0-3.8,1.5-3.8,2.7c0,2.2,2.2,3.2,5,4.6c4.7,2.2,8.8,4.3,8.8,9.2
		c0,3.9-3.8,7.6-9.3,7.6c-4.5,0-7.3-1.9-8.8-3C76.6,124.9,76.4,124.2,76.6,123.7z"/>
	<path d="M100.6,123.7c0.3-0.4,0.7-1.3,0.9-1.7c0.3-0.5,1.1-0.7,1.8-0.2c0,0,2.9,2.4,6.3,2.4c2.8,0,4.4-1.4,4.4-3.2
		c0-2.4-2-3.4-5.9-5.4c-3.6-1.7-7.7-4.1-7.7-8.7c0-2.8,2.3-7,8.5-7c3.5,0,6.2,1.2,7.5,2.1c0.6,0.4,0.8,1.3,0.4,2.1l-0.5,1.1
		c-0.4,0.7-1.3,0.9-2,0.6c0,0-2.9-1.6-5.4-1.6c-3,0-3.8,1.5-3.8,2.7c0,2.2,2.2,3.2,5,4.6c4.7,2.2,8.8,4.3,8.8,9.2
		c0,3.9-3.8,7.6-9.3,7.6c-4.5,0-7.3-1.9-8.8-3C100.6,124.9,100.4,124.2,100.6,123.7z"/>
	<path d="M125.3,84.9c0-1.8,1.4-3.2,3.2-3.2c1.8,0,3.2,1.4,3.2,3.2c0,1.8-1.4,3.2-3.2,3.2C126.7,88.1,125.3,86.7,125.3,84.9z
		 M126.2,101.8c0-0.7,0.6-1.3,1.3-1.3h2.1c0.7,0,1.3,0.6,1.3,1.3v24.4c0,0.7-0.6,1.3-1.3,1.3h-2.1c-0.7,0-1.3-0.6-1.3-1.3V101.8z"/>
	<path d="M151.4,99.9c4.4,0,7.2,1.8,7.2,1.8v-20c0-0.7,0.6-1.3,1.3-1.3h2.1c0.7,0,1.3,0.6,1.3,1.3v44.6c0,0.7-0.6,1.3-1.3,1.3h-1.4
		c-0.6,0-1-0.5-1.1-1.1l-0.4-1.8c0,0-3.2,3.6-8.3,3.6c-6.9,0-12.3-6.5-12.3-14.2C138.5,106.1,143.3,99.9,151.4,99.9z M151.2,123.9
		c4.8,0,7.3-4.4,7.3-4.4V106c0,0-2.8-1.6-6.5-1.6c-5.9,0-8.8,4.2-8.8,9.6C143.2,119.3,146.3,123.9,151.2,123.9z"/>
	<path d="M169.1,102c-0.4-0.9,0-1.5,1-1.5h3c0.5,0,0.9,0.3,1.1,0.7l10,20.6h0.1l9.4-20.6c0.2-0.4,0.7-0.7,1.1-0.7h2.6
		c1,0,1.5,0.7,1,1.5l-20.7,44.8c-0.2,0.4-0.7,0.8-1.1,0.8h-2.5c-1,0-1.6-0.7-1.1-1.7l8.6-18.6L169.1,102z"/>
</g>
<text transform="matrix(1 0 0 1 45.7002 189.5957)" class="st0 st1">L.Ac</text>
</svg>
