<?xml version="1.0" encoding="utf-8"?>
<!-- Generator: Adobe Illustrator 19.2.0, SVG Export Plug-In . SVG Version: 6.00 Build 0)  -->
<svg version="1.1" id="Layer_1" xmlns="http://www.w3.org/2000/svg" xmlns:xlink="http://www.w3.org/1999/xlink" x="0px" y="0px"
	 viewBox="0 0 56 96" style="enable-background:new 0 0 56 96;" xml:space="preserve">
<g>
	<path d="M51,3c1.1,0,2,0.9,2,2v86c0,1.1-0.9,2-2,2H5c-1.1,0-2-0.9-2-2V5c0-1.1,0.9-2,2-2H51 M8,79h40c0.6,0,1-0.4,1-1V8
		c0-0.6-0.4-1-1-1H8C7.4,7,7,7.4,7,8v70C7,78.6,7.4,79,8,79 M28,89c1.7,0,3-1.3,3-3s-1.3-3-3-3s-3,1.3-3,3S26.3,89,28,89 M51,0H5
		C2.2,0,0,2.2,0,5v86c0,2.8,2.2,5,5,5h46c2.8,0,5-2.2,5-5V5C56,2.2,53.8,0,51,0L51,0z M10,10h36v66H10V10L10,10z"/>
</g>
</svg>
